<svg width="38" height="35" viewBox="0 0 38 35" fill="none" xmlns="http://www.w3.org/2000/svg">
<path d="M23 19C23 19.7911 22.7654 20.5645 22.3259 21.2223C21.8864 21.8801 21.2616 22.3928 20.5307 22.6955C19.7998 22.9983 18.9956 23.0775 18.2196 22.9231C17.4437 22.7688 16.731 22.3878 16.1716 21.8284C15.6122 21.269 15.2312 20.5563 15.0769 19.7804C14.9225 19.0044 15.0017 18.2002 15.3045 17.4693C15.6072 16.7384 16.1199 16.1136 16.7777 15.6741C17.4355 15.2346 18.2089 15 19 15C20.0599 15.0033 21.0754 15.4258 21.8248 16.1752C22.5742 16.9246 22.9967 17.9401 23 19ZM31.5 13.5V24.5C31.5 26.3565 30.7625 28.137 29.4497 29.4497C28.137 30.7625 26.3565 31.5 24.5 31.5H13.5C11.6435 31.5 9.86301 30.7625 8.55025 29.4497C7.2375 28.137 6.5 26.3565 6.5 24.5V13.5C6.5 11.6435 7.2375 9.86301 8.55025 8.55025C9.86301 7.2375 11.6435 6.5 13.5 6.5H24.5C26.3565 6.5 28.137 7.2375 29.4497 8.55025C30.7625 9.86301 31.5 11.6435 31.5 13.5ZM25 19C25 17.8133 24.6481 16.6533 23.9888 15.6666C23.3295 14.6799 22.3925 13.9108 21.2961 13.4567C20.1997 13.0026 18.9933 12.8838 17.8295 13.1153C16.6656 13.3468 15.5965 13.9182 14.7574 14.7574C13.9182 15.5965 13.3468 16.6656 13.1153 17.8295C12.8838 18.9933 13.0026 20.1997 13.4567 21.2961C13.9108 22.3925 14.6799 23.3295 15.6666 23.9888C16.6533 24.6481 17.8133 25 19 25C20.5913 25 22.1174 24.3679 23.2426 23.2426C24.3679 22.1174 25 20.5913 25 19ZM27 12.5C27 12.2033 26.912 11.9133 26.7472 11.6666C26.5824 11.42 26.3481 11.2277 26.074 11.1142C25.7999 11.0006 25.4983 10.9709 25.2074 11.0288C24.9164 11.0867 24.6491 11.2296 24.4393 11.4393C24.2296 11.6491 24.0867 11.9164 24.0288 12.2074C23.9709 12.4983 24.0007 12.7999 24.1142 13.074C24.2277 13.3481 24.42 13.5824 24.6666 13.7472C24.9133 13.912 25.2033 14 25.5 14C25.8978 14 26.2794 13.842 26.5607 13.5607C26.842 13.2794 27 12.8978 27 12.5Z" fill="#FFF1CE"/>
<path d="M37 33.47H37.47V33V19C37.47 8.7993 29.2007 0.53 19 0.53C8.7993 0.53 0.53 8.7993 0.53 19V33V33.47H1H37Z" stroke="#FFF1CE" stroke-width="0.94"/>
</svg>
