<svg width="38" height="36" viewBox="0 0 38 36" fill="none" xmlns="http://www.w3.org/2000/svg">
<path d="M32.3333 11.1948C31.3311 11.6296 30.2712 11.917 29.1867 12.0481C30.3309 11.3646 31.1884 10.2892 31.6 9.02146C30.5247 9.66155 29.3477 10.1125 28.12 10.3548C27.2994 9.46489 26.2066 8.87252 25.0131 8.6706C23.8195 8.46867 22.5927 8.66861 21.525 9.23905C20.4574 9.80949 19.6092 10.7182 19.1136 11.8226C18.6181 12.927 18.503 14.1646 18.7867 15.3415C16.6126 15.2315 14.4859 14.6654 12.5449 13.6799C10.6038 12.6945 8.89179 11.3117 7.51999 9.62146C7.03884 10.4617 6.78602 11.4132 6.78666 12.3815C6.78495 13.2806 7.00561 14.1663 7.429 14.9595C7.85238 15.7528 8.46535 16.4291 9.21332 16.9281C8.34396 16.9045 7.49317 16.6712 6.73332 16.2481V16.3148C6.73984 17.5746 7.18132 18.7936 7.98308 19.7654C8.78484 20.7372 9.89766 21.4023 11.1333 21.6481C10.6577 21.7929 10.1638 21.8692 9.66666 21.8748C9.32251 21.8708 8.97922 21.8396 8.63999 21.7815C8.99187 22.8652 9.67282 23.8123 10.5881 24.491C11.5034 25.1697 12.6074 25.5462 13.7467 25.5681C11.8229 27.0818 9.44783 27.9079 6.99999 27.9148C6.5543 27.9163 6.10897 27.8895 5.66666 27.8348C8.16589 29.4485 11.0784 30.3051 14.0533 30.3015C16.1062 30.3228 18.1428 29.9348 20.0441 29.1602C21.9454 28.3857 23.6734 27.24 25.1269 25.7901C26.5805 24.3403 27.7306 22.6153 28.5101 20.716C29.2895 18.8167 29.6827 16.7811 29.6667 14.7281V14.0215C30.7129 13.2412 31.6153 12.2847 32.3333 11.1948Z" fill="#FFF1CE"/>
<path d="M37 33.47H37.47V33V19C37.47 8.7993 29.2007 0.53 19 0.53C8.7993 0.53 0.53 8.7993 0.53 19V33V33.47H1H37Z" stroke="#FFF1CE" stroke-width="0.94"/>
</svg>
