<svg width="38" height="34" viewBox="0 0 38 34" fill="none" xmlns="http://www.w3.org/2000/svg">
<g clip-path="url(#clip0_0_94)">
<path fill-rule="evenodd" clip-rule="evenodd" d="M19 4.66675C11.636 4.66675 5.66666 10.6361 5.66666 18.0001C5.66666 20.5201 6.36666 22.8801 7.58399 24.8907L6.39466 28.9334C6.32637 29.1655 6.32188 29.4117 6.38165 29.6462C6.44142 29.8806 6.56325 30.0947 6.73434 30.2657C6.90542 30.4368 7.11943 30.5587 7.35388 30.6184C7.58833 30.6782 7.83455 30.6737 8.06666 30.6054L12.1093 29.4161C14.1876 30.6735 16.571 31.3367 19 31.3334C26.364 31.3334 32.3333 25.3641 32.3333 18.0001C32.3333 10.6361 26.364 4.66675 19 4.66675ZM15.984 21.0174C18.6813 23.7134 21.256 24.0694 22.1653 24.1027C23.548 24.1534 24.8947 23.0974 25.4187 21.8721C25.4848 21.7197 25.5088 21.5522 25.4882 21.3874C25.4675 21.2225 25.403 21.0662 25.3013 20.9347C24.5707 20.0014 23.5827 19.3307 22.6173 18.6641C22.4158 18.5247 22.1681 18.4688 21.9262 18.5081C21.6844 18.5474 21.4671 18.6788 21.32 18.8747L20.52 20.0947C20.4779 20.1603 20.4124 20.2074 20.3368 20.2262C20.2612 20.245 20.1812 20.2343 20.1133 20.1961C19.5707 19.8854 18.78 19.3574 18.212 18.7894C17.644 18.2214 17.148 17.4667 16.8693 16.9587C16.8348 16.8942 16.8248 16.8193 16.8412 16.748C16.8576 16.6767 16.8994 16.6137 16.9587 16.5707L18.1907 15.6561C18.3665 15.5032 18.4799 15.291 18.5094 15.0599C18.5389 14.8288 18.4824 14.5949 18.3507 14.4027C17.7533 13.5281 17.0573 12.4161 16.048 11.6787C15.9177 11.5844 15.7651 11.5255 15.6052 11.508C15.4453 11.4904 15.2836 11.5148 15.136 11.5787C13.9093 12.1041 12.848 13.4507 12.8987 14.8361C12.932 15.7454 13.288 18.3201 15.984 21.0174Z" fill="#FFF1CE"/>
</g>
<path d="M37 33.47H37.47V33V19C37.47 8.7993 29.2007 0.53 19 0.53C8.7993 0.53 0.53 8.7993 0.53 19V33V33.47H1H37Z" stroke="#FFF1CE" stroke-width="0.94"/>
<defs>
<clipPath id="clip0_0_94">
<rect width="32" height="32" fill="white" transform="translate(3 2)"/>
</clipPath>
</defs>
</svg>
